<?xml version="1.0" encoding="utf-8"?>
<svg width="43" height="42" viewBox="0 0 43 42" fill="none" xmlns="http://www.w3.org/2000/svg">
  <path opacity="0.05" fill-rule="evenodd" clip-rule="evenodd" d="M31.5 1.99805H11.5C9.37497 1.99805 7.42196 2.73453 5.88228 3.96617L15.1712 13.2551C16.8951 11.8444 19.0987 10.998 21.5 10.998C23.9013 10.998 26.1048 11.8444 27.8287 13.2551L37.1177 3.96613C35.578 2.73451 33.625 1.99805 31.5 1.99805ZM26.4056 14.6782C25.0509 13.6251 23.3487 12.998 21.5 12.998C19.6513 12.998 17.949 13.6251 16.5943 14.6782L21.5 19.5838L26.4056 14.6782ZM13.757 14.6693L4.46807 5.3804C3.23646 6.92006 2.5 8.87305 2.5 10.998V30.998C2.5 33.1231 3.23647 35.076 4.46809 36.6157L13.757 27.3268C12.3464 25.6029 11.5 23.3993 11.5 20.998C11.5 18.5968 12.3464 16.3932 13.757 14.6693ZM15.1801 25.9037C14.1271 24.549 13.5 22.8468 13.5 20.998C13.5 19.1494 14.1271 17.4471 15.1801 16.0924L20.0857 20.9981L15.1801 25.9037ZM15.1713 28.741L5.8823 38.0299C7.42197 39.2616 9.37498 39.998 11.5 39.998H31.5C33.625 39.998 35.578 39.2616 37.1176 38.03L27.8287 28.741C26.1048 30.1517 23.9013 30.998 21.5 30.998C19.0987 30.998 16.8951 30.1517 15.1713 28.741ZM26.4056 27.3179C25.0509 28.371 23.3487 28.998 21.5 28.998C19.6513 28.998 17.949 28.371 16.5943 27.3179L21.5 22.4123L26.4056 27.3179ZM27.8198 25.9037L22.9142 20.9981L27.8198 16.0924C28.8729 17.4471 29.5 19.1493 29.5 20.998C29.5 22.8468 28.8729 24.549 27.8198 25.9037ZM29.2429 27.3268C30.6536 25.6029 31.5 23.3993 31.5 20.998C31.5 18.5968 30.6536 16.3932 29.2429 14.6693L38.5319 5.38034C39.7635 6.92002 40.5 8.87303 40.5 10.998V30.998C40.5 33.1231 39.7635 35.0761 38.5319 36.6158L29.2429 27.3268ZM11.5 -0.00195312C5.42487 -0.00195312 0.5 4.92292 0.5 10.998V30.998C0.5 37.0732 5.42487 41.998 11.5 41.998H31.5C37.5751 41.998 42.5 37.0732 42.5 30.998V10.998C42.5 4.92292 37.5751 -0.00195312 31.5 -0.00195312H11.5Z" style="fill: rgb(46, 255, 238);" transform="matrix(0.9999999999999999, 0, 0, 0.9999999999999999, 0, 2.220446049250313e-16)"/>
  <path d="M 21.464 6.006 C 13.339 6.006 6.758 12.587 6.758 20.712 C 6.758 28.834 13.339 35.418 21.464 35.418 C 29.585 35.418 36.168 28.834 36.168 20.712 C 36.168 12.587 29.585 6.006 21.464 6.006 Z M 17.349 26.865 L 14.482 26.865 L 14.482 17.688 L 17.349 17.688 L 17.349 26.865 Z M 15.839 16.54 L 15.815 16.54 C 14.778 16.54 14.104 15.842 14.104 14.95 C 14.104 14.041 14.8 13.36 15.857 13.36 C 16.914 13.36 17.559 14.041 17.586 14.95 C 17.59 15.838 16.919 16.54 15.839 16.54 Z M 28.814 26.865 L 25.566 26.865 L 25.566 22.118 C 25.566 20.879 25.058 20.028 23.939 20.028 C 23.083 20.028 22.605 20.603 22.389 21.154 C 22.308 21.349 22.318 21.624 22.318 21.905 L 22.318 26.865 L 19.096 26.865 C 19.096 26.865 19.136 18.453 19.096 17.688 L 22.318 17.688 L 22.318 19.131 C 22.509 18.502 23.537 17.604 25.18 17.604 C 27.219 17.604 28.814 18.925 28.814 21.763 L 28.814 26.865 Z" style="stroke: rgb(234, 237, 255); paint-order: stroke; transform-origin: 21.463px 20.712px;"/>
  <ellipse style="stroke: rgb(0, 0, 0); stroke-width: 0px; fill: rgb(234, 237, 255);" cx="15.836" cy="14.895" rx="1.281" ry="1.226" transform="matrix(0.9999999999999999, 0, 0, 0.9999999999999999, 0, 2.220446049250313e-16)"/>
  <rect x="14.987" y="18.179" width="1.949" height="8.191" style="stroke: rgb(0, 0, 0); fill: rgb(234, 237, 255); stroke-width: 0px;" transform="matrix(0.9999999999999999, 0, 0, 0.9999999999999999, 0, 2.220446049250313e-16)"/>
  <rect x="19.426" y="17.962" width="2.562" height="8.516" style="stroke: rgb(0, 0, 0); stroke-width: 0px; fill: rgb(234, 237, 255);" transform="matrix(0.9999999999999999, 0, 0, 0.9999999999999999, 0, 2.220446049250313e-16)"/>
  <path style="stroke: rgb(0, 0, 0); stroke-width: 0px; fill: rgb(234, 237, 255);" d="M 21.807 19.225 C 21.807 19.225 23.936 17.962 23.972 17.962 C 24.008 17.962 26.895 17.89 26.895 17.89 L 28.194 19.947 C 28.194 19.947 28.591 21.643 28.591 21.823 C 28.591 22.003 28.482 25.431 28.482 25.504 C 28.482 25.577 28.41 26.658 28.41 26.658 L 25.884 26.514 L 25.848 23.916 L 25.632 22.292 C 25.632 22.292 25.812 21.21 25.74 21.029 C 25.668 20.848 25.307 20.38 25.199 20.308 C 25.091 20.236 24.008 19.694 23.936 19.694 C 23.864 19.694 22.854 20.38 22.854 20.38 C 22.854 20.38 20.942 21.245 21.555 21.174 C 22.168 21.103 21.807 19.189 21.807 19.225 Z" transform="matrix(0.9999999999999999, 0, 0, 0.9999999999999999, 0, 2.220446049250313e-16)"/>
</svg>